# xmcd CD database file
#
# Track frame offsets:
#	183
#	29133
#	48108
#	70255
#	89958
#	104115
#	121908
#	157625
#	185448
#	208940
#	236445
#	253753
#	270933
#	283618
#	312240
#	328468
#
# Disc length: 4561 seconds
#
# Revision: 2
# Processed by: cddbd v1.4PL0 Copyright (c) Steve Scherf et al.
# Submitted via: CDex 1.50beta10
#
DISCID=f111cf10
DTITLE=Bugs Henderson And The Stratoblasters - Texan Eagles
DYEAR=1986
DGENRE=Blues
TTITLE0=Come One Mama
TTITLE1=Just Because
TTITLE2=Baby What You Want Me To Do
TTITLE3=Austin and Austin Again
TTITLE4=Bug Solo -  At The Top
TTITLE5=The Stumble
TTITLE6=20 Dollars Blues At Night
TTITLE7=Tore Down
TTITLE8=I'll Play American Music
TTITLE9=Suzie Q - My Babe
TTITLE10=Going Back To Louisiana
TTITLE11=Together Again
TTITLE12=Sweet Little Sixteen
TTITLE13=Rocket In My Pocket
TTITLE14=Nobody Business
TTITLE15=Shuffle King
EXTD=YEAR: 1986
EXTT0=
EXTT1=
EXTT2=
EXTT3=
EXTT4=
EXTT5=
EXTT6=
EXTT7=
EXTT8=
EXTT9=
EXTT10=
EXTT11=
EXTT12=
EXTT13=
EXTT14=
EXTT15=
PLAYORDER=
